HIERARCHY
ROOT hip
{
	OFFSET 0.000000 0.000000 0.000000 
	CHANNELS 6 Xposition Yposition Zposition Xrotation Zrotation Yrotation
	JOINT abdomen
	{
		OFFSET 0.000000 3.402643 0.000000 
		CHANNELS 3 Xrotation Zrotation Yrotation
		JOINT chest
		{
			OFFSET 0.000000 8.438565 -0.680529 
			CHANNELS 3 Xrotation Zrotation Yrotation
			JOINT neck
			{
				OFFSET 0.000000 10.207942 -0.272212 
				CHANNELS 3 Xrotation Zrotation Yrotation
				JOINT head
				{
					OFFSET 0.000000 3.130431 0.000000 
					CHANNELS 3 Xrotation Zrotation Yrotation
					End Site
					{
						OFFSET 0.000000 3.130435 0.000000 
					}
				}
			}
			JOINT lCollar
			{
				OFFSET 3.470700 6.669187 -0.816635 
				CHANNELS 3 Yrotation Zrotation Xrotation
				JOINT lShldr
				{
					OFFSET 3.198488 0.000000 0.000000 
					CHANNELS 3 Zrotation Yrotation Xrotation
					JOINT lForeArm
					{
						OFFSET 10.139888 0.000000 0.000000 
						CHANNELS 3 Yrotation Zrotation Xrotation
						JOINT lHand
						{
							OFFSET 8.370511 0.000000 0.000000 
							CHANNELS 3 Zrotation Yrotation Xrotation
							End Site
							{
								OFFSET 4.083176 0.000000 0.000000 
							}
						}
					}
				}
			}
			JOINT rCollar
			{
				OFFSET -3.470700 6.669187 -0.816635 
				CHANNELS 3 Yrotation Zrotation Xrotation
				JOINT rShldr
				{
					OFFSET -3.198488 0.000000 0.000000 
					CHANNELS 3 Zrotation Yrotation Xrotation
					JOINT rForeArm
					{
						OFFSET -10.139888 0.000000 0.000000 
						CHANNELS 3 Yrotation Zrotation Xrotation
						JOINT rHand
						{
							OFFSET -8.370511 0.000000 0.000000 
							CHANNELS 3 Zrotation Yrotation Xrotation
							End Site
							{
								OFFSET -4.083176 0.000000 0.000000 
							}
						}
					}
				}
			}
		}
	}
	JOINT lThigh
	{
		OFFSET 5.308129 -1.633274 1.361059 
		CHANNELS 3 Xrotation Zrotation Yrotation
		JOINT lShin
		{
			OFFSET -2.041588 -20.007561 0.000000 
			CHANNELS 3 Xrotation Zrotation Yrotation
			JOINT lFoot
			{
				OFFSET 0.000000 -19.190928 -1.224953 
				CHANNELS 3 Xrotation Yrotation Zrotation
				End Site
				{
					OFFSET 0.000000 -2.449906 4.627600 
				}
			}
		}
	}
	JOINT rThigh
	{
		OFFSET -5.308129 -1.633274 1.361059 
		CHANNELS 3 Xrotation Zrotation Yrotation
		JOINT rShin
		{
			OFFSET 2.041588 -20.007561 0.000000 
			CHANNELS 3 Xrotation Zrotation Yrotation
			JOINT rFoot
			{
				OFFSET 0.000000 -19.190928 -1.224953 
				CHANNELS 3 Xrotation Yrotation Zrotation
				End Site
				{
					OFFSET 0.000000 -2.449906 4.627600 
				}
			}
		}
	}
}
MOTION
Frames: 12
Frame Time: 0.033333
2.284092 47.531471 -2.328879 14.746093 -7.578125 -11.962891 5.087891 11.601563 25.841808 0.000000 0.000000 0.000000 -24.453125 -7.402343 11.767579 0.000000 0.000000 0.000000 0.000000 0.000000 0.000000 -79.150391 -11.396484 53.386742 7.812501 3.164063 -13.984914 38.837891 19.453127 -31.835939 0.000000 0.000000 0.000000 66.611328 15.058593 37.404881 -0.283203 1.464845 -9.765867 -60.625000 -10.205079 -14.572042 -52.192127 18.943266 2.529471 61.771553 0.092596 1.649631 18.363266 2.435730 -1.468994 -17.928368 16.110611 20.273901 7.921554 -2.655318 0.165913 6.481369 -0.124622 -1.716223 
4.825704 48.718300 -1.948197 13.525390 -7.392578 10.185547 1.406250 6.679688 22.872231 0.000000 0.000000 0.000000 -18.457031 -4.580078 9.286331 0.000000 0.000000 0.000000 0.000000 0.000000 0.000000 -78.535156 -10.341797 50.652542 8.085938 2.978516 -13.457538 35.781254 18.271484 -31.881704 0.000000 0.000000 0.000000 69.667969 12.343750 37.550915 -0.566406 0.810548 -10.820432 -60.585938 -8.720703 -13.351089 -40.860840 13.101996 5.070505 46.994835 -3.020005 2.435033 13.558289 3.882715 1.497094 -24.771868 13.491768 17.795074 22.170580 -5.361607 0.027257 12.121789 0.680262 -0.574491 
7.322531 51.170341 -2.239306 11.777344 -6.875000 33.885548 -1.582031 0.869141 20.918118 0.000000 0.000000 0.000000 -12.490233 -0.722656 7.011596 0.000000 0.000000 0.000000 0.000000 0.000000 0.000000 -77.792969 -9.931641 47.391754 8.310547 2.636719 -12.890624 32.392578 16.728516 -31.842892 0.000000 0.000000 0.000000 73.085938 9.980468 37.677475 -0.800781 0.507813 -12.040998 -60.419922 -6.894531 -11.993361 -28.643951 6.988827 7.366988 30.051004 -5.888485 4.139527 8.578288 5.395369 4.469024 -31.949463 11.168602 15.795540 38.081211 -8.576408 -0.111573 18.824755 2.179733 0.722806 
8.341416 53.297680 -2.384861 8.613282 -6.347656 52.352436 -3.359375 -2.822266 20.390142 0.000000 0.000000 0.000000 -8.437500 3.505859 5.634766 0.000000 0.000000 0.000000 0.000000 0.000000 0.000000 -76.376953 -10.136718 44.431877 8.437500 2.490235 -12.539486 29.785158 15.683595 -31.823536 0.000000 0.000000 0.000000 76.044922 8.710938 39.630386 -0.849609 1.074221 -12.929840 -60.361332 -5.576171 -10.898436 -18.184511 3.775393 9.848809 15.444210 -7.645459 5.616532 4.451767 6.431139 6.518186 -37.962292 11.020527 14.039759 52.501945 -10.755204 -1.245820 23.503078 4.012518 4.072084 
7.949536 54.350159 -1.343584 3.857422 -7.392579 63.094448 -5.292969 -2.646484 20.566408 0.000000 0.000000 0.000000 -6.503906 6.855469 5.078125 0.000000 0.000000 0.000000 0.000000 0.000000 0.000000 -74.433594 -9.853516 43.103798 8.486328 2.011719 -11.943701 29.179688 15.615234 -31.833305 0.000000 0.000000 0.000000 78.261719 8.164063 43.399826 -0.673828 1.933594 -11.865233 -60.224606 -4.980468 -10.342643 -12.184762 4.802920 11.521093 6.351532 -8.718060 7.455710 1.431915 7.340565 8.026649 -42.476246 12.927285 10.625277 62.247108 -11.869704 -1.903608 22.928164 5.886656 5.093578 
6.527577 53.846313 -0.167948 -1.425781 -9.326172 69.041389 -6.679687 0.527344 18.808655 0.000000 0.000000 0.000000 -6.689453 8.955252 4.747503 0.000000 0.000000 0.000000 0.000000 0.000000 0.000000 -73.173828 -9.345703 43.250374 8.320313 1.435547 -11.142823 29.912109 16.162109 -31.755093 0.000000 0.000000 0.000000 79.257813 8.642579 46.710449 -0.410156 1.835938 -9.746094 -60.234371 -4.707032 -10.088693 -10.175036 8.866215 11.589303 2.183604 -9.335488 7.582856 0.030192 7.385852 8.711274 -44.628105 14.707070 4.587723 64.747284 -13.151858 -0.990249 20.202456 6.786421 4.925643 
4.870490 52.424355 1.321191 -8.447267 -11.435547 72.031250 -5.117187 7.900391 15.108765 0.000000 0.000000 0.000000 -8.457032 8.085938 7.197266 0.000000 0.000000 0.000000 0.000000 0.000000 0.000000 -75.253906 -6.542969 44.119980 7.519531 1.914063 -11.337891 34.462894 16.748047 -30.348743 0.000000 0.000000 0.000000 78.554688 11.416016 49.933575 0.507812 -0.117188 -10.644531 -61.132809 -6.621094 -11.397610 -10.527837 15.703677 10.391697 3.581455 -9.135616 7.232871 -2.168853 7.273433 7.394861 -40.052292 17.360714 -2.869696 57.612606 -13.577821 3.673036 13.209414 4.973462 2.996054 
3.885197 51.024788 2.373665 -11.621094 -12.666016 69.960938 0.527344 15.976540 14.983177 0.000000 0.000000 0.000000 -12.832031 2.109375 13.887079 0.000000 0.000000 0.000000 0.000000 0.000000 0.000000 -80.136719 -4.580078 47.840633 7.861328 0.605469 -12.607422 39.326172 18.007813 -29.791903 0.000000 0.000000 0.000000 73.593750 15.263673 47.883434 1.650391 -1.865234 -9.013352 -63.173828 -8.691407 -12.872570 -16.343681 21.886013 12.851953 17.033918 -7.498194 4.784362 -5.837247 6.663012 3.819389 -32.433643 20.482817 -0.736080 45.283600 -10.859331 6.537414 5.965375 2.706440 3.561360 
4.299468 51.170341 1.769052 -9.667969 -10.390624 72.373047 0.527344 13.515605 13.928082 0.000000 0.000000 0.000000 -11.953125 1.757813 11.777643 0.000000 0.000000 0.000000 0.000000 0.000000 0.000000 -80.468750 -3.330078 50.819744 6.542969 1.386719 -11.406252 39.628906 17.539064 -27.666018 0.000000 0.000000 0.000000 74.941406 12.929688 48.935551 1.679688 -1.865234 -8.476562 -59.541019 -8.505860 -12.167969 -13.318608 19.351473 12.129416 15.394780 -7.645133 5.115815 -5.266980 4.788022 2.200758 -31.275850 17.878777 1.690485 46.893200 -8.782501 3.279796 6.260583 3.276171 3.384058 
5.094423 51.886921 1.153243 -6.162109 -6.513672 76.962891 0.869141 9.306642 11.778923 0.000000 0.000000 0.000000 -10.390624 1.044922 8.261896 0.000000 0.000000 0.000000 0.000000 0.000000 0.000000 -80.732422 -1.289063 56.240017 3.837891 2.929688 -9.277344 40.263672 16.728516 -23.544920 0.000000 0.000000 0.000000 76.796875 9.052734 50.743725 2.666016 -2.802734 -6.816406 -52.324223 -8.574219 -12.031251 -8.434731 15.060106 10.893641 13.135457 -7.820815 6.234525 -5.019919 1.040237 -0.370213 -29.290249 12.750305 5.583191 49.574379 -4.414968 -1.537732 7.399020 4.062501 3.418463 
5.934163 52.513927 0.671792 -1.767578 -2.832031 82.069832 1.406250 4.912109 8.974610 0.000000 0.000000 0.000000 -9.677734 -0.361328 4.902282 0.000000 0.000000 0.000000 0.000000 0.000000 0.000000 -79.902344 1.445312 62.177731 0.556641 5.244141 -6.299721 41.181641 14.609375 -17.917456 0.000000 0.000000 0.000000 77.578125 4.824219 53.173828 7.773438 -6.396484 -2.568359 -43.271481 -9.072266 -13.536694 -2.997343 10.404894 9.099733 11.235312 -7.861957 7.322947 -5.316476 -2.616846 -3.642368 -28.270584 5.742197 8.316777 52.279903 1.348864 -6.290856 9.398571 6.421004 5.089278 
6.583561 52.928200 0.492647 2.109375 0.000000 85.419922 2.109375 2.109375 5.801141 0.000000 0.000000 0.000000 -10.917619 -3.173728 4.745722 0.000000 0.000000 0.000000 0.000000 0.000000 0.000000 -75.820313 5.859375 66.778343 -2.314453 7.880859 -3.613281 42.978516 11.523437 -11.455078 0.000000 0.000000 0.000000 75.156250 3.134766 55.752487 21.806641 -14.335937 6.330543 -35.478516 -9.326172 -15.312499 -0.576172 6.320879 6.568651 12.105344 -7.608983 8.478307 -6.666718 -4.672379 -6.710921 -28.901392 -3.213179 8.767986 54.655384 7.750422 -10.060880 11.011934 11.174447 9.888018 
